<mxfile host="app.diagrams.net" modified="2023-06-06T07:43:09.382Z" agent="Mozilla/5.0 (Windows NT 10.0; Win64; x64) AppleWebKit/537.36 (KHTML, like Gecko) Chrome/114.0.0.0 Safari/537.36 Edg/114.0.1823.37" version="21.3.7" etag="9fWPMKAZVX-FX37U4_59" type="github">
  <diagram name="Page-1" id="5LAk871ZRLtd8uUCBXa5">
    <mxGraphModel>
      <root>
        <mxCell id="0" />
        <mxCell id="1" parent="0" />
      </root>
    </mxGraphModel>
  </diagram>
</mxfile>
